<svg width="20" height="20" viewBox="0 0 20 20" fill="none" xmlns="http://www.w3.org/2000/svg">
<path d="M19.997 15.23C19.997 15.957 19.592 17.357 18.682 18.126C18.5 18.266 18.318 18.187 18.398 17.983C18.663 17.335 19.269 15.836 18.985 15.491C18.784 15.229 17.954 15.249 17.246 15.309C16.923 15.35 16.639 15.369 16.419 15.414C16.215 15.43 16.174 15.251 16.378 15.111C16.6437 14.9234 16.9373 14.779 17.248 14.683C18.398 14.339 19.727 14.546 19.918 14.766C19.954 14.808 19.997 14.927 19.997 15.23ZM18.075 16.524C17.8113 16.7257 17.5343 16.9094 17.246 17.074C15.124 18.349 12.375 19.017 9.988 19.017C6.145 19.017 2.708 17.6 0.100004 15.229C-0.123996 15.047 0.061004 14.783 0.323004 14.926C3.133 16.566 6.611 17.558 10.211 17.558C12.477 17.558 14.919 17.134 17.246 16.222C17.409 16.161 17.591 16.078 17.75 16.02C18.117 15.855 18.44 16.262 18.075 16.524ZM11.905 5.494C11.905 4.453 11.947 3.84 11.602 3.314C11.296 2.881 10.769 2.621 10.033 2.662C9.235 2.706 8.378 3.229 8.16 4.188C8.117 4.408 7.989 4.624 7.723 4.671L5.288 4.361C5.114 4.321 4.849 4.188 4.936 3.84C5.459 1.088 7.81 0.129 10.034 0H10.556C11.776 0 13.344 0.349 14.347 1.264C15.564 2.4 15.434 3.926 15.434 5.584V9.511C15.434 10.689 15.912 11.211 16.392 11.825C16.522 12.044 16.567 12.302 16.348 12.48C15.718 13.0417 15.0789 13.5931 14.431 14.134C14.256 14.267 13.942 14.281 13.821 14.179C13.051 13.534 12.863 13.176 12.386 12.521C11.556 13.392 10.859 13.873 10.03 14.134C9.44701 14.2819 8.84746 14.3545 8.246 14.35C6.156 14.35 4.501 13.047 4.501 10.47C4.501 8.421 5.591 7.028 7.201 6.369C8.811 5.709 11.151 5.498 11.905 5.494ZM11.428 10.686C11.948 9.814 11.905 9.1 11.905 7.501C11.253 7.501 10.599 7.546 10.034 7.679C8.989 7.982 8.159 8.639 8.159 10.034C8.159 11.124 8.727 11.866 9.685 11.866C9.817 11.866 9.933 11.85 10.033 11.821C10.703 11.635 11.121 11.299 11.428 10.686Z" fill="inherit"/>
</svg>
