<svg width="'inherit" height="inherit" viewBox="0 0 13 15" fill="inherit" xmlns="http://www.w3.org/2000/svg">
    <path d="M8.35801 1.14497C7.13562 0.860931 5.86439 0.860931 4.64201 1.14497C3.93601 0.711972 3.39701 0.512972 3.00501 0.428972C2.8377 0.391213 2.6665 0.373422 2.49501 0.375972C2.41697 0.378087 2.3393 0.387461 2.26301 0.403972L2.25301 0.405972L2.24901 0.407972H2.24601L2.38301 0.888972L2.24601 0.408972C2.17575 0.428826 2.1107 0.463823 2.05542 0.511505C2.00013 0.559186 1.95596 0.618396 1.92601 0.684972C1.63098 1.34568 1.57477 2.08839 1.76701 2.78597C1.26914 3.38933 0.997831 4.14773 1.00001 4.92997C1.00001 6.48297 1.45801 7.52697 2.23901 8.19797C2.78601 8.66797 3.45001 8.91797 4.11601 9.06097C4.0112 9.36878 3.97169 9.69505 4.00001 10.019V10.617C3.59301 10.702 3.31101 10.675 3.11001 10.609C2.85901 10.526 2.66601 10.359 2.48101 10.119C2.3843 9.9896 2.29418 9.85543 2.21101 9.71697L2.15401 9.62397C2.08203 9.50429 2.00735 9.38626 1.93001 9.26997C1.74001 8.98897 1.45801 8.63697 1.00201 8.51697L0.518008 8.38997L0.264008 9.35797L0.748008 9.48497C0.828008 9.50497 0.932007 9.57997 1.10301 9.83097C1.16883 9.93005 1.23218 10.0308 1.29301 10.133L1.36101 10.243C1.45501 10.395 1.56301 10.563 1.68801 10.727C1.94101 11.057 2.28601 11.39 2.79801 11.559C3.14801 11.675 3.54601 11.703 4.00001 11.633V13.5C4.00001 13.6326 4.05269 13.7598 4.14645 13.8535C4.24022 13.9473 4.3674 14 4.50001 14H8.50001C8.63262 14 8.75979 13.9473 8.85356 13.8535C8.94733 13.7598 9.00001 13.6326 9.00001 13.5V9.93697C9.00001 9.62197 8.98601 9.33297 8.89701 9.06397C9.56001 8.92397 10.219 8.67397 10.763 8.20397C11.543 7.52797 12 6.47397 12 4.91197V4.91097C11.9975 4.13513 11.7261 3.38416 11.232 2.78597C11.424 2.0887 11.3678 1.34639 11.073 0.685972C11.0433 0.619317 10.9993 0.559978 10.9442 0.512125C10.8891 0.464271 10.8242 0.429063 10.754 0.408972L10.617 0.888972C10.754 0.408972 10.753 0.408972 10.752 0.408972L10.75 0.407972L10.746 0.405972L10.737 0.403972C10.7123 0.39755 10.6873 0.392542 10.662 0.388972C10.6097 0.381329 10.5569 0.376987 10.504 0.375972C10.3325 0.373441 10.1613 0.391231 9.99401 0.428972C9.60301 0.512972 9.06401 0.711972 8.35801 1.14497Z"
          fill="inherit"/>
</svg>
