<svg width="13" height="13" viewBox="0 0 12 12" fill="#6a7b83" xmlns="http://www.w3.org/2000/svg">
    <path d="M1.44 2.89001C2.24 2.89001 2.88 2.24001 2.88 1.45001C2.88 0.66001 2.23 0.0100098 1.44 0.0100098C0.65 0.0100098 0 0.66001 0 1.45001C0 2.24001 0.65 2.89001 1.44 2.89001ZM4.25 3.98001V12H6.73V8.04001C6.73 6.99001 6.93 5.98001 8.22 5.98001C9.51 5.98001 9.51 7.18001 9.51 8.10001V12H12V7.60001C12 5.44001 11.54 3.78001 9.02 3.78001C7.81 3.78001 7 4.44001 6.67 5.07001H6.64V3.97001H4.26L4.25 3.98001ZM0.2 3.98001H2.69V12H0.2V3.98001Z"
          fill="inherit"/>
</svg>
